<mxfile host="app.diagrams.net" modified="2021-08-15T18:54:02.892Z" agent="5.0 (Windows NT 10.0; Win64; x64) AppleWebKit/537.36 (KHTML, like Gecko) Chrome/92.0.4515.131 Safari/537.36" etag="bYWeyDvAjewsFwn8ySXF" version="14.9.6" type="github">
  <diagram id="prtHgNgQTEPvFCAcTncT" name="Page-1">
    <mxGraphModel dx="782" dy="734" grid="1" gridSize="10" guides="1" tooltips="1" connect="1" arrows="1" fold="1" page="1" pageScale="1" pageWidth="1169" pageHeight="827" math="0" shadow="0">
      <root>
        <mxCell id="0" />
        <mxCell id="1" parent="0" />
        <mxCell id="dNxyNK7c78bLwvsdeMH5-11" value="Orgchart" style="swimlane;html=1;startSize=20;horizontal=1;containerType=tree;glass=0;rounded=1;" parent="1" vertex="1">
          <mxGeometry x="20" y="120" width="910" height="630" as="geometry" />
        </mxCell>
        <mxCell id="i040K_z8CPqD6RR2PwEB-16" value="CEO" style="whiteSpace=wrap;html=1;rounded=1;" parent="dNxyNK7c78bLwvsdeMH5-11" vertex="1">
          <mxGeometry x="420" y="40" width="80" height="50" as="geometry" />
        </mxCell>
        <mxCell id="jjE5-w13kYY4naL1i2iV-1" value="" style="edgeStyle=orthogonalEdgeStyle;curved=0;rounded=1;sketch=0;orthogonalLoop=1;jettySize=auto;html=1;strokeColor=#808080;" edge="1" source="i040K_z8CPqD6RR2PwEB-16" target="jjE5-w13kYY4naL1i2iV-2" parent="dNxyNK7c78bLwvsdeMH5-11">
          <mxGeometry relative="1" as="geometry" />
        </mxCell>
        <mxCell id="jjE5-w13kYY4naL1i2iV-2" value="Chief Business Officer" style="whiteSpace=wrap;html=1;rounded=1;" vertex="1" parent="dNxyNK7c78bLwvsdeMH5-11">
          <mxGeometry x="260" y="120" width="80" height="50" as="geometry" />
        </mxCell>
        <mxCell id="jjE5-w13kYY4naL1i2iV-3" value="" style="edgeStyle=orthogonalEdgeStyle;curved=0;sketch=0;orthogonalLoop=1;jettySize=auto;html=1;strokeColor=#808080;" edge="1" source="i040K_z8CPqD6RR2PwEB-16" target="jjE5-w13kYY4naL1i2iV-4" parent="dNxyNK7c78bLwvsdeMH5-11">
          <mxGeometry relative="1" as="geometry" />
        </mxCell>
        <mxCell id="jjE5-w13kYY4naL1i2iV-4" value="Chief Information Officer" style="whiteSpace=wrap;html=1;rounded=1;" vertex="1" parent="dNxyNK7c78bLwvsdeMH5-11">
          <mxGeometry x="590" y="120" width="80" height="50" as="geometry" />
        </mxCell>
        <mxCell id="jjE5-w13kYY4naL1i2iV-5" value="" style="edgeStyle=orthogonalEdgeStyle;curved=0;sketch=0;orthogonalLoop=1;jettySize=auto;html=1;strokeColor=#808080;" edge="1" target="jjE5-w13kYY4naL1i2iV-6" source="jjE5-w13kYY4naL1i2iV-4" parent="dNxyNK7c78bLwvsdeMH5-11">
          <mxGeometry relative="1" as="geometry">
            <mxPoint x="550" y="175" as="sourcePoint" />
          </mxGeometry>
        </mxCell>
        <mxCell id="jjE5-w13kYY4naL1i2iV-6" value="Project Management Office" style="whiteSpace=wrap;html=1;rounded=1;" vertex="1" parent="dNxyNK7c78bLwvsdeMH5-11">
          <mxGeometry x="500" y="200" width="80" height="50" as="geometry" />
        </mxCell>
        <mxCell id="jjE5-w13kYY4naL1i2iV-7" value="" style="edgeStyle=orthogonalEdgeStyle;curved=0;sketch=0;orthogonalLoop=1;jettySize=auto;html=1;strokeColor=#808080;" edge="1" target="jjE5-w13kYY4naL1i2iV-8" source="jjE5-w13kYY4naL1i2iV-4" parent="dNxyNK7c78bLwvsdeMH5-11">
          <mxGeometry relative="1" as="geometry">
            <mxPoint x="550" y="175" as="sourcePoint" />
          </mxGeometry>
        </mxCell>
        <mxCell id="jjE5-w13kYY4naL1i2iV-8" value="Application Support" style="whiteSpace=wrap;html=1;rounded=1;" vertex="1" parent="dNxyNK7c78bLwvsdeMH5-11">
          <mxGeometry x="590" y="200" width="80" height="50" as="geometry" />
        </mxCell>
        <mxCell id="jjE5-w13kYY4naL1i2iV-9" value="" style="edgeStyle=orthogonalEdgeStyle;curved=0;sketch=0;orthogonalLoop=1;jettySize=auto;html=1;strokeColor=#808080;" edge="1" target="jjE5-w13kYY4naL1i2iV-10" source="jjE5-w13kYY4naL1i2iV-4" parent="dNxyNK7c78bLwvsdeMH5-11">
          <mxGeometry relative="1" as="geometry">
            <mxPoint x="550" y="175" as="sourcePoint" />
          </mxGeometry>
        </mxCell>
        <mxCell id="jjE5-w13kYY4naL1i2iV-10" value="Infrastructure, Operations, Security" style="whiteSpace=wrap;html=1;rounded=1;" vertex="1" parent="dNxyNK7c78bLwvsdeMH5-11">
          <mxGeometry x="730" y="200" width="80" height="50" as="geometry" />
        </mxCell>
        <mxCell id="jjE5-w13kYY4naL1i2iV-11" value="" style="edgeStyle=orthogonalEdgeStyle;curved=0;sketch=0;orthogonalLoop=1;jettySize=auto;html=1;strokeColor=#808080;" edge="1" target="jjE5-w13kYY4naL1i2iV-12" source="jjE5-w13kYY4naL1i2iV-6" parent="dNxyNK7c78bLwvsdeMH5-11">
          <mxGeometry relative="1" as="geometry">
            <mxPoint x="610" y="255" as="sourcePoint" />
          </mxGeometry>
        </mxCell>
        <mxCell id="jjE5-w13kYY4naL1i2iV-12" value="Project Manager" style="whiteSpace=wrap;html=1;rounded=1;" vertex="1" parent="dNxyNK7c78bLwvsdeMH5-11">
          <mxGeometry x="500" y="290" width="80" height="50" as="geometry" />
        </mxCell>
        <mxCell id="jjE5-w13kYY4naL1i2iV-13" value="" style="edgeStyle=orthogonalEdgeStyle;curved=0;sketch=0;orthogonalLoop=1;jettySize=auto;html=1;strokeColor=#808080;" edge="1" target="jjE5-w13kYY4naL1i2iV-14" source="jjE5-w13kYY4naL1i2iV-8" parent="dNxyNK7c78bLwvsdeMH5-11">
          <mxGeometry relative="1" as="geometry">
            <mxPoint x="650" y="280" as="sourcePoint" />
          </mxGeometry>
        </mxCell>
        <mxCell id="jjE5-w13kYY4naL1i2iV-14" value="Systems Analyst" style="whiteSpace=wrap;html=1;rounded=1;" vertex="1" parent="dNxyNK7c78bLwvsdeMH5-11">
          <mxGeometry x="590" y="290" width="80" height="50" as="geometry" />
        </mxCell>
        <mxCell id="jjE5-w13kYY4naL1i2iV-15" value="" style="edgeStyle=orthogonalEdgeStyle;curved=0;sketch=0;orthogonalLoop=1;jettySize=auto;html=1;strokeColor=#808080;" edge="1" target="jjE5-w13kYY4naL1i2iV-16" source="jjE5-w13kYY4naL1i2iV-10" parent="dNxyNK7c78bLwvsdeMH5-11">
          <mxGeometry relative="1" as="geometry">
            <mxPoint x="690" y="255" as="sourcePoint" />
          </mxGeometry>
        </mxCell>
        <mxCell id="jjE5-w13kYY4naL1i2iV-16" value="Infrastructure, Architect" style="whiteSpace=wrap;html=1;rounded=1;" vertex="1" parent="dNxyNK7c78bLwvsdeMH5-11">
          <mxGeometry x="680" y="290" width="80" height="50" as="geometry" />
        </mxCell>
        <mxCell id="jjE5-w13kYY4naL1i2iV-17" value="" style="edgeStyle=orthogonalEdgeStyle;curved=0;sketch=0;orthogonalLoop=1;jettySize=auto;html=1;strokeColor=#808080;" edge="1" target="jjE5-w13kYY4naL1i2iV-18" source="jjE5-w13kYY4naL1i2iV-10" parent="dNxyNK7c78bLwvsdeMH5-11">
          <mxGeometry relative="1" as="geometry">
            <mxPoint x="690" y="255" as="sourcePoint" />
          </mxGeometry>
        </mxCell>
        <mxCell id="jjE5-w13kYY4naL1i2iV-18" value="Security Architect" style="whiteSpace=wrap;html=1;rounded=1;" vertex="1" parent="dNxyNK7c78bLwvsdeMH5-11">
          <mxGeometry x="770" y="290" width="80" height="50" as="geometry" />
        </mxCell>
        <mxCell id="P8v_rCW9kutjD35WI3KI-5" value="" style="fontSize=11;" parent="1" edge="1">
          <mxGeometry relative="1" as="geometry">
            <mxPoint x="230" y="580" as="sourcePoint" />
            <mxPoint x="230" y="580" as="targetPoint" />
          </mxGeometry>
        </mxCell>
      </root>
    </mxGraphModel>
  </diagram>
</mxfile>
